<svg width="32" height="32" viewBox="0 0 32 32" fill="none" xmlns="http://www.w3.org/2000/svg">
<path d="M29.0612 10.0614L13.0612 26.0614C12.9218 26.2012 12.7563 26.3122 12.5739 26.3879C12.3916 26.4636 12.1961 26.5026 11.9987 26.5026C11.8013 26.5026 11.6058 26.4636 11.4235 26.3879C11.2411 26.3122 11.0756 26.2012 10.9362 26.0614L3.9362 19.0614C3.79667 18.9219 3.68599 18.7562 3.61047 18.5739C3.53496 18.3916 3.49609 18.1962 3.49609 17.9989C3.49609 17.8016 3.53496 17.6062 3.61047 17.4239C3.68599 17.2416 3.79667 17.0759 3.9362 16.9364C4.07573 16.7969 4.24137 16.6862 4.42367 16.6107C4.60598 16.5351 4.80137 16.4963 4.9987 16.4963C5.19602 16.4963 5.39141 16.5351 5.57372 16.6107C5.75602 16.6862 5.92167 16.7969 6.0612 16.9364L11.9999 22.8751L26.9387 7.93888C27.2205 7.65709 27.6027 7.49878 28.0012 7.49878C28.3997 7.49878 28.7819 7.65709 29.0637 7.93888C29.3455 8.22067 29.5038 8.60287 29.5038 9.00138C29.5038 9.3999 29.3455 9.78209 29.0637 10.0639L29.0612 10.0614Z" fill="#F7B733"/>
</svg>
